<svg width="98" height="28" viewBox="0 0 98 28" fill="none" xmlns="http://www.w3.org/2000/svg">
<g clip-path="url(#clip0_201_699)" filter="url(#filter0_dd_201_699)">
<path d="M31.9727 3.12324C31.6435 1.89323 30.6768 0.926623 29.4468 0.597366C27.2197 1.78814e-07 18.285 0 18.285 0C18.285 0 9.35042 1.78814e-07 7.12323 0.597366C5.89323 0.926623 4.92662 1.89323 4.59737 3.12324C4 5.35042 4 10 4 10C4 10 4 14.6496 4.59737 16.8768C4.92662 18.1068 5.89323 19.0734 7.12323 19.4026C9.35042 20 18.285 20 18.285 20C18.285 20 27.2197 20 29.4468 19.4026C30.6768 19.0734 31.6435 18.1068 31.9727 16.8768C32.5701 14.6496 32.5701 10 32.5701 10C32.5701 10 32.5677 5.35042 31.9727 3.12324Z" fill="#FF0000"/>
<path d="M15.4253 14.2854L22.8477 10.0004L15.4253 5.71533V14.2854Z" fill="white"/>
<path d="M38.6024 13.0036L35.3945 1.41846H38.1932L39.3174 6.6701C39.6043 7.96361 39.8136 9.06662 39.95 9.97913H40.0323C40.1264 9.32532 40.3381 8.22937 40.665 6.68892L41.8291 1.41846H44.6278L41.3799 13.0036V18.561H38.6001V13.0036H38.6024Z" fill="white"/>
<path d="M45.4697 18.1937C44.9053 17.8127 44.5031 17.22 44.2632 16.4157C44.0257 15.6114 43.9058 14.5437 43.9058 13.2078V11.3898C43.9058 10.0422 44.0422 8.95805 44.315 8.14196C44.5878 7.32588 45.0135 6.72851 45.592 6.35457C46.1706 5.98063 46.9302 5.79248 47.871 5.79248C48.7976 5.79248 49.5384 5.98298 50.0981 6.36398C50.6555 6.74497 51.0647 7.34234 51.3234 8.15137C51.5821 8.96275 51.7115 10.0422 51.7115 11.3898V13.2078C51.7115 14.5437 51.5845 15.6161 51.3329 16.4251C51.0812 17.2365 50.672 17.8292 50.1075 18.2031C49.5431 18.5771 48.7764 18.7652 47.8098 18.7652C46.8126 18.7675 46.0342 18.5747 45.4697 18.1937ZM48.6353 16.2323C48.7905 15.8231 48.8705 15.1575 48.8705 14.2309V10.3292C48.8705 9.43077 48.7929 8.77225 48.6353 8.35833C48.4777 7.94206 48.2026 7.7351 47.8074 7.7351C47.4265 7.7351 47.156 7.94206 47.0008 8.35833C46.8432 8.77461 46.7656 9.43077 46.7656 10.3292V14.2309C46.7656 15.1575 46.8408 15.8254 46.9914 16.2323C47.1419 16.6415 47.4123 16.8461 47.8074 16.8461C48.2026 16.8461 48.4777 16.6415 48.6353 16.2323Z" fill="white"/>
<path d="M60.8154 18.5634H58.6094L58.3648 17.03H58.3037C57.7039 18.1871 56.8055 18.7656 55.6061 18.7656C54.7759 18.7656 54.1621 18.4928 53.767 17.9496C53.3719 17.4039 53.1743 16.5526 53.1743 15.3955V6.03751H55.9942V15.2308C55.9942 15.7906 56.0553 16.188 56.1776 16.4256C56.2999 16.6631 56.5045 16.783 56.7914 16.783C57.036 16.783 57.2712 16.7078 57.497 16.5573C57.7228 16.4067 57.8874 16.2162 57.9979 15.9858V6.03516H60.8154V18.5634Z" fill="white"/>
<path d="M68.4755 3.68758H65.6768V18.5629H62.9181V3.68758H60.1194V1.42041H68.4755V3.68758Z" fill="white"/>
<path d="M75.2768 18.5634H73.0708L72.8262 17.03H72.7651C72.1654 18.1871 71.267 18.7656 70.0675 18.7656C69.2373 18.7656 68.6235 18.4928 68.2284 17.9496C67.8333 17.4039 67.6357 16.5526 67.6357 15.3955V6.03751H70.4556V15.2308C70.4556 15.7906 70.5167 16.188 70.639 16.4256C70.7613 16.6631 70.9659 16.783 71.2529 16.783C71.4974 16.783 71.7326 16.7078 71.9584 16.5573C72.1842 16.4067 72.3488 16.2162 72.4593 15.9858V6.03516H75.2768V18.5634Z" fill="white"/>
<path d="M84.609 8.0387C84.4373 7.24849 84.1621 6.67699 83.7812 6.32186C83.4002 5.96674 82.8757 5.79035 82.2078 5.79035C81.6904 5.79035 81.2059 5.93616 80.7567 6.23014C80.3075 6.52412 79.9594 6.90747 79.7148 7.38489H79.6937V0.785645H76.9773V18.5608H79.3056L79.5925 17.3755H79.6537C79.8724 17.7988 80.1993 18.1304 80.6344 18.3774C81.0695 18.622 81.554 18.7443 82.0855 18.7443C83.038 18.7443 83.7412 18.3045 84.1904 17.4272C84.6396 16.5476 84.8653 15.1765 84.8653 13.3092V11.3266C84.8653 9.92722 84.7783 8.82892 84.609 8.0387ZM82.0243 13.1492C82.0243 14.0617 81.9867 14.7767 81.9114 15.2941C81.8362 15.8115 81.7115 16.1808 81.5328 16.3971C81.3564 16.6158 81.1165 16.724 80.8178 16.724C80.585 16.724 80.371 16.6699 80.1734 16.5594C79.9759 16.4512 79.816 16.2866 79.6937 16.0702V8.96062C79.7877 8.6196 79.9524 8.34209 80.1852 8.12337C80.4157 7.90465 80.6697 7.79646 80.9401 7.79646C81.2271 7.79646 81.4481 7.90935 81.6034 8.13278C81.7609 8.35855 81.8691 8.73485 81.9303 9.26636C81.9914 9.79787 82.022 10.5528 82.022 11.5335V13.1492H82.0243Z" fill="white"/>
<path d="M88.8657 13.8712C88.8657 14.6755 88.8892 15.2776 88.9363 15.6798C88.9833 16.0819 89.0821 16.3736 89.2326 16.5594C89.3831 16.7428 89.6136 16.8345 89.9264 16.8345C90.3474 16.8345 90.639 16.6699 90.7942 16.343C90.9518 16.0161 91.0365 15.4705 91.0506 14.7085L93.4824 14.8519C93.4965 14.9601 93.5035 15.1106 93.5035 15.3011C93.5035 16.4582 93.186 17.3237 92.5534 17.8952C91.9208 18.4667 91.0247 18.7536 89.8676 18.7536C88.4777 18.7536 87.504 18.3185 86.9466 17.446C86.3869 16.5735 86.1094 15.2259 86.1094 13.4008V11.2136C86.1094 9.33452 86.3987 7.96105 86.9772 7.09558C87.5558 6.2301 88.5459 5.79736 89.9499 5.79736C90.9165 5.79736 91.6597 5.97375 92.1771 6.32888C92.6945 6.684 93.059 7.23433 93.2707 7.98457C93.4824 8.7348 93.5882 9.76961 93.5882 11.0913V13.2362H88.8657V13.8712ZM89.2232 7.96811C89.0797 8.14449 88.9857 8.43377 88.9363 8.83593C88.8892 9.2381 88.8657 9.84722 88.8657 10.6657V11.5641H90.9283V10.6657C90.9283 9.86133 90.9001 9.25221 90.846 8.83593C90.7919 8.41966 90.6931 8.12803 90.5496 7.95635C90.4062 7.78702 90.1851 7.7 89.8864 7.7C89.5854 7.70235 89.3643 7.79172 89.2232 7.96811Z" fill="white"/>
</g>
<defs>
<filter id="filter0_dd_201_699" x="0" y="0" width="98" height="28" filterUnits="userSpaceOnUse" color-interpolation-filters="sRGB">
<feFlood flood-opacity="0" result="BackgroundImageFix"/>
<feColorMatrix in="SourceAlpha" type="matrix" values="0 0 0 0 0 0 0 0 0 0 0 0 0 0 0 0 0 0 127 0" result="hardAlpha"/>
<feOffset dy="4"/>
<feGaussianBlur stdDeviation="2"/>
<feComposite in2="hardAlpha" operator="out"/>
<feColorMatrix type="matrix" values="0 0 0 0 0 0 0 0 0 0 0 0 0 0 0 0 0 0 0.25 0"/>
<feBlend mode="normal" in2="BackgroundImageFix" result="effect1_dropShadow_201_699"/>
<feColorMatrix in="SourceAlpha" type="matrix" values="0 0 0 0 0 0 0 0 0 0 0 0 0 0 0 0 0 0 127 0" result="hardAlpha"/>
<feOffset dy="4"/>
<feGaussianBlur stdDeviation="2"/>
<feComposite in2="hardAlpha" operator="out"/>
<feColorMatrix type="matrix" values="0 0 0 0 0 0 0 0 0 0 0 0 0 0 0 0 0 0 0.25 0"/>
<feBlend mode="normal" in2="effect1_dropShadow_201_699" result="effect2_dropShadow_201_699"/>
<feBlend mode="normal" in="SourceGraphic" in2="effect2_dropShadow_201_699" result="shape"/>
</filter>
<clipPath id="clip0_201_699">
<rect width="90" height="20" fill="white" transform="translate(4)"/>
</clipPath>
</defs>
</svg>
